<?xml version="1.0" encoding="UTF-8" standalone="no"?>
<!-- Created with Inkscape (http://www.inkscape.org/) -->

<svg
   xmlns:dc="http://purl.org/dc/elements/1.1/"
   xmlns:cc="http://creativecommons.org/ns#"
   xmlns:rdf="http://www.w3.org/1999/02/22-rdf-syntax-ns#"
   xmlns:svg="http://www.w3.org/2000/svg"
   xmlns="http://www.w3.org/2000/svg"
   xmlns:sodipodi="http://sodipodi.sourceforge.net/DTD/sodipodi-0.dtd"
   xmlns:inkscape="http://www.inkscape.org/namespaces/inkscape"
   width="150mm"
   height="150mm"
   viewBox="0 0 150 150"
   version="1.1"
   id="svg8"
   sodipodi:docname="bannerSwirlLogo.svg"
   inkscape:version="0.92.1 r15371">
  <defs
     id="defs2" />
  <sodipodi:namedview
     id="base"
     pagecolor="#ffffff"
     bordercolor="#666666"
     borderopacity="1.0"
     inkscape:pageopacity="0.0"
     inkscape:pageshadow="2"
     inkscape:zoom="0.175"
     inkscape:cx="1089.202"
     inkscape:cy="1017.1429"
     inkscape:document-units="mm"
     inkscape:current-layer="layer1"
     showgrid="false"
     inkscape:window-width="1280"
     inkscape:window-height="657"
     inkscape:window-x="-8"
     inkscape:window-y="-8"
     inkscape:window-maximized="1" />
  <metadata
     id="metadata5">
    <rdf:RDF>
      <cc:Work
         rdf:about="">
        <dc:format>image/svg+xml</dc:format>
        <dc:type
           rdf:resource="http://purl.org/dc/dcmitype/StillImage" />
        <dc:title></dc:title>
      </cc:Work>
    </rdf:RDF>
  </metadata>
  <g
     inkscape:label="Layer 1"
     inkscape:groupmode="layer"
     id="layer1"
     transform="translate(0,-147)">
    <path
       style="fill:#b3b3b3;fill-opacity:1;stroke-width:0.26458332"
       id="path5816"
       d="m 72.542093,166.17855 c -5.07928,8.34965 -8.58276,17.47244 -12.14874,26.53329 -4.99462,13.20767 -9.7405,26.53446 -13.28925,40.20978 -1.04315,5.84943 -3.34989,12.02234 -2.05695,18.01629 0.18722,0.31691 0.25281,0.7505 0.56168,0.95073 0.24509,0.15889 0.58404,-0.0124 0.87607,-0.0187 -3.85252,1.06959 -7.63554,2.4317 -11.55753,3.20876 -0.69922,0.13854 1.21531,-0.76483 1.72704,-1.26105 1.57342,-1.52571 2.74965,-3.56286 3.93636,-5.35754 6.17604,-9.30645 10.31941,-19.66111 14.2861,-30.04058 3.3415,-9.5576 7.36547,-18.85049 12.42986,-27.61973 4.80698,-8.30537 6.05049,-9.583 19.18518,-9.97703 1.14855,-0.0344 1.39446,1.83326 1.97953,2.82224 0.78486,1.32664 1.41404,2.7394 2.12106,4.10911 0.77674,1.87341 1.62134,3.7201 2.33021,5.62022 0.85915,2.30301 4.74599,14.08662 5.35562,15.93074 3.045827,9.21399 6.113827,18.39622 9.413467,27.52287 3.49671,8.85491 7.03363,17.79409 11.84352,26.04343 1.0055,1.72448 3.53417,5.45971 4.75052,7.27847 1.67634,2.49046 1.13014,1.34296 1.89857,3.30622 0,0 -12.84717,4.17858 -12.84717,4.17858 v 0 c -0.41838,-1.70743 -0.0578,-0.62283 -1.55093,-3.05812 -0.98338,-1.55819 -3.8817,-6.11974 -4.62624,-7.45034 -4.68736,-8.37707 -8.133397,-17.39118 -11.582187,-26.32138 -3.2585,-9.14453 -6.31904,-18.34637 -9.45578,-27.53276 -0.97999,-2.87007 -4.32094,-12.57981 -5.58263,-15.74944 -0.73697,-1.85143 -1.61467,-3.6437 -2.422,-5.46555 -0.72347,-1.28638 -1.34755,-2.63394 -2.1704,-3.85914 -0.51088,-0.76071 -2.55926,-1.54017 -1.8106,-2.06853 3.26538,-2.30448 7.3819,-3.069 11.11454,-4.49755 0.57139,-0.21868 -1.18338,0.43461 -1.61951,0.86365 -0.7842,0.7714 -2.97061,4.54537 -3.41982,5.28978 -5.21682,8.67168 -9.35519,17.90536 -12.70236,27.45592 -3.9212,10.41356 -7.95649,20.83163 -13.99265,30.24408 -5.67483,9.3255 -5.3236,8.52456 -19.46478,11.65913 -0.92814,0.20574 -1.64968,-1.77761 -1.8514,-2.18614 -1.26828,-6.26908 1.02164,-12.61569 2.25317,-18.7111 3.64222,-13.71398 8.47928,-27.06431 13.35804,-40.37992 3.44974,-9.01918 6.79069,-18.12524 11.60873,-26.52797 0,0 13.12166,-3.16077 13.12166,-3.16077 z"
       inkscape:connector-curvature="0" />
    <path
       style="fill:#b3b3b3;fill-opacity:1;stroke-width:0.26458332"
       id="path5818"
       d="m 40.235093,214.33408 c 6.17699,4.38676 13.64655,6.3951 20.8125,8.52372 17.36021,4.42127 35.2875,5.74379 53.077267,7.27886 9.02173,0.61426 17.97259,2.30886 27.01639,2.56594 0,0 -12.08432,5.61718 -12.08432,5.61718 v 0 c -8.87954,-0.58642 -17.67205,-2.13277 -26.54289,-2.84417 -17.893717,-1.62364 -35.936017,-2.94702 -53.399867,-7.41549 -7.38532,-2.1689 -14.84908,-4.32535 -21.37865,-8.53742 0,0 12.49957,-5.18862 12.49957,-5.18862 z"
       inkscape:connector-curvature="0" />
  </g>
</svg>
